# xmcd CD database file
#
# Track frame offsets:
#	150
#	33540
#	52670
#	71689
#	111922
#	134446
#	154659
#	187584
#	229584
#
# Disc length: 3406 seconds
#
# Revision: 0
# Processed by: cddbd v1.4PL0 Copyright (c) Steve Scherf et al.
# Submitted via: CDex 1.50beta10
#
DISCID=6c0d4c09
DTITLE=marcel scherpenzeel band - live
DYEAR=1900
DGENRE=Blues
TTITLE0=gamblin' girl
TTITLE1=last wave
TTITLE2=livin' with you baby
TTITLE3=sad day
TTITLE4=drown
TTITLE5=guitar and soul
TTITLE6=relax
TTITLE7=the witch
TTITLE8=when my baby she left me 
EXTD=
EXTT0=
EXTT1=
EXTT2=
EXTT3=
EXTT4=
EXTT5=
EXTT6=
EXTT7=
EXTT8=
PLAYORDER=
